<svg width="18" height="13" viewBox="0 0 18 13" fill="none" xmlns="http://www.w3.org/2000/svg">
<path fill-rule="evenodd" clip-rule="evenodd" d="M16.0428 0.39765C16.8138 0.61176 17.4217 1.23882 17.6293 2.03412C18.0148 3.48706 17.9999 6.51529 17.9999 6.51529C17.9999 6.51529 17.9999 9.5282 17.6293 10.9812C17.4217 11.7765 16.8138 12.4035 16.0428 12.6176C14.6342 13 8.99996 13 8.99996 13C8.99996 13 3.38055 13 1.95716 12.6024C1.18616 12.3882 0.578251 11.7612 0.370674 10.9659C0 9.5282 0 6.5 0 6.5C0 6.5 0 3.48706 0.370674 2.03412C0.578251 1.23882 1.20098 0.59647 1.95716 0.38235C3.36572 -2.98023e-08 8.99996 0 8.99996 0C8.99996 0 14.6342 0 16.0428 0.39765ZM11.891 6.49983L7.20565 9.2834V3.7163L11.891 6.49983Z" fill="#ACA7BC"/>
</svg>
